<?xml version="1.0" encoding="utf-8"?>
<!-- Generator: Adobe Illustrator 25.4.1, SVG Export Plug-In . SVG Version: 6.00 Build 0)  -->
<svg version="1.1" id="Camada_1" xmlns="http://www.w3.org/2000/svg" xmlns:xlink="http://www.w3.org/1999/xlink" x="0px" y="0px"
	 viewBox="0 0 1000 1000" style="enable-background:new 0 0 1000 1000;" xml:space="preserve">
<style type="text/css">
	.st0{fill:#2B2B2B;}
	.st1{fill:#FFF2DE;}
	.st2{fill:#F3A90C;}
	.st3{fill:#F8B03B;}
	.st4{fill:none;stroke:#070707;stroke-width:6;stroke-miterlimit:10;}
	.st5{display:none;fill:none;stroke:#070707;stroke-width:6;stroke-miterlimit:10;}
	.st6{fill:#070707;}
	.st7{fill:#2B3D23;}
	.st8{fill:#485C40;}
	.st9{fill:#C79437;}
	.st10{fill:#CE8606;}
	.st11{fill:none;}
	.st12{fill:none;stroke:#2B3D23;stroke-width:10;stroke-linecap:round;stroke-miterlimit:10;}
	.st13{fill:#314C22;}
	.st14{fill:none;stroke:#314C22;stroke-width:10;stroke-linecap:round;stroke-miterlimit:10;}
	.st15{fill:none;stroke:#314C22;stroke-width:8.1624;stroke-linecap:round;stroke-miterlimit:10;}
	.st16{fill:none;stroke:#314C22;stroke-width:8.1479;stroke-linecap:round;stroke-miterlimit:10;}
	.st17{fill:none;stroke:#F3A90C;stroke-width:8.1479;stroke-linecap:round;stroke-miterlimit:10;}
	.st18{fill:none;stroke:#314C22;stroke-linecap:round;stroke-miterlimit:10;}
	.st19{fill:none;stroke:#FFF2DE;stroke-width:9;stroke-miterlimit:10;}
	.st20{fill:none;stroke:#E6007E;stroke-linecap:round;stroke-miterlimit:10;}
	.st21{fill:none;stroke:#314C22;stroke-width:18.1112;stroke-linecap:round;stroke-miterlimit:10;}
	.st22{fill:none;stroke:#314C22;stroke-width:25.4624;stroke-linecap:round;stroke-miterlimit:10;}
	.st23{fill:none;stroke:#FFF2DE;stroke-width:18.1112;stroke-linecap:round;stroke-miterlimit:10;}
	.st24{fill:none;stroke:#2B2B2B;stroke-width:18.1112;stroke-linecap:round;stroke-miterlimit:10;}
</style>
<g>
	<circle class="st1" cx="500" cy="500" r="415.33"/>
	<path class="st2" d="M626.68,500c0,34.99-14.18,66.64-37.1,89.58L500.01,500l-89.6,89.58c-22.92-22.94-37.1-54.59-37.1-89.58
		c0-23.07,6.16-44.71,16.96-63.35c5.55-9.6,12.35-18.43,20.14-26.23h0.03c22.94-22.94,54.62-37.12,89.58-37.12
		c34.96,0,66.64,14.18,89.55,37.12h0.03c7.79,7.79,14.59,16.63,20.14,26.23C620.52,455.29,626.68,476.93,626.68,500z"/>
	<path class="st10" d="M690.03,500c0,52.48-21.29,99.99-55.69,134.34l-44.76-44.76c22.92-22.94,37.1-54.59,37.1-89.58
		c0-23.07-6.16-44.71-16.96-63.35c-5.55-9.6-12.35-18.43-20.14-26.23h-0.03c-22.92-22.94-54.59-37.12-89.55-37.12
		c-34.96,0-66.64,14.18-89.58,37.12h-0.03c-7.79,7.79-14.59,16.63-20.14,26.23c-10.8,18.64-16.96,40.28-16.96,63.35
		c0,34.99,14.18,66.64,37.1,89.58l-44.76,44.76c-34.4-34.37-55.66-81.89-55.66-134.34c0-22.2,3.82-43.54,10.82-63.35
		c9.52-26.99,25-51.18,44.84-71.02c34.37-34.4,81.89-55.66,134.37-55.66c52.45,0,99.94,21.26,134.34,55.66h0.03
		c19.84,19.84,35.29,44.02,44.84,71.02C686.21,456.46,690.03,477.8,690.03,500z"/>
	<circle class="st22" cx="500" cy="500" r="190.03"/>
	<path class="st2" d="M500.01,500l-56.68,113.31l-28.31,56.65l-28.34,56.68c-24.47-12.25-46.7-28.34-65.85-47.49l44.81-44.81
		l44.76-44.76L500.01,500z"/>
	<path class="st13" d="M679.16,679.15c-45.86,45.83-109.21,74.2-179.15,74.2c-40.74,0-79.24-9.62-113.33-26.71l28.34-56.68
		l28.31-56.65L500.01,500L679.16,679.15z"/>
	<circle class="st22" cx="500" cy="500" r="253.37"/>
	<line class="st22" x1="320.83" y1="679.15" x2="500" y2="500"/>
	<line class="st22" x1="679.16" y1="679.15" x2="500" y2="500"/>
	<circle class="st22" cx="500" cy="500" r="415.33"/>
	<g>
		<g>
			<path class="st10" d="M288.57,734.05c0.39,0.44,0.34,1.28-0.1,1.67l-42.51,37.73c-0.44,0.39-1.28,0.34-1.67-0.1l-10.22-11.51
				c-0.39-0.44-0.34-1.28,0.1-1.67l22.44-19.91l-0.13-0.15c0,0-3.27,0.92-6.93,1.26l-24.25,2.26l5.19-23.74
				c0.77-3.59,2.08-6.73,2.08-6.73l-0.2-0.22l-22.44,19.91c-0.44,0.39-1.28,0.34-1.67-0.1l-10.22-11.51
				c-0.39-0.44-0.34-1.28,0.1-1.67l42.51-37.73c0.44-0.39,1.28-0.34,1.67,0.1l8.78,9.89c0.46,0.52,0.7,1.23,0.51,2.06l-7.11,32.57
				l0.13,0.15l33.19-3.2c0.84-0.09,1.52,0.23,1.98,0.75L288.57,734.05z"/>
			<path class="st10" d="M330.34,800.13c-11,15.67-30.1,16.25-44.8,5.93s-20.64-28.48-9.64-44.15s30.1-16.25,44.79-5.93
				S341.34,784.47,330.34,800.13z M290.44,772.12c-5.56,7.92-3.06,16.9,3.72,21.66s16.08,4.06,21.64-3.86
				c5.5-7.83,3.06-16.9-3.72-21.66S295.94,764.29,290.44,772.12z"/>
			<path class="st10" d="M340.78,788.81c-0.54-0.24-0.94-1.28-0.7-1.82l4.97-11.18c0.24-0.54,1.28-0.94,1.82-0.7l51.94,23.09
				c0.54,0.24,0.94,1.28,0.7,1.82l-4.97,11.18c-0.24,0.54-1.28,0.94-1.82,0.7l-17.86-7.94l-17.48,39.32
				c-0.24,0.54-1.02,0.84-1.56,0.6l-14.07-6.25c-0.54-0.24-0.84-1.02-0.6-1.56l17.48-39.32L340.78,788.81z"/>
			<path class="st10" d="M456.16,841.95c-4.24,18.67-21.69,26.45-39.2,22.47c-17.51-3.97-29.9-18.52-25.66-37.19
				s21.69-26.45,39.2-22.48C448.01,808.73,460.4,823.28,456.16,841.95z M408.62,831.16c-2.14,9.43,3.58,16.8,11.66,18.63
				s16.42-2.35,18.56-11.78c2.12-9.33-3.58-16.8-11.66-18.63C419.09,817.55,410.74,821.83,408.62,831.16z"/>
			<path class="st10" d="M467.74,814.17c0.01-0.59,0.61-1.17,1.2-1.16l29.6,0.51c14.6,0.25,24.81,9.12,24.58,22.34
				c-0.15,8.39-4.79,14.33-11.75,17.56l0,0.2c0,0,1.25,1.8,2.31,3.49l8.64,13.87c0.48,0.8,0.67,1.1,0.67,1.49s-0.31,0.69-1,0.67
				l-18.15-0.31c-0.49-0.01-1.08-0.22-1.37-0.71l-9.69-15.76l-7.99-0.14l-0.26,15.09c-0.01,0.59-0.61,1.17-1.2,1.16l-15.39-0.27
				c-0.59-0.01-1.17-0.61-1.16-1.21L467.74,814.17z M485.26,828.29l-0.24,13.91l11.44,0.2c5.62,0.1,8.83-2.91,8.9-6.85
				c0.07-4.05-3.04-6.96-8.66-7.06L485.26,828.29z"/>
			<path class="st10" d="M601.49,858.9c0.11,0.58-0.36,1.27-0.94,1.39l-15.12,2.9c-0.58,0.11-1.27-0.36-1.39-0.94l-3.61-18.8
				l-27.33,5.24l3.61,18.8c0.11,0.58-0.36,1.27-0.94,1.39l-15.12,2.9c-0.58,0.11-1.27-0.36-1.39-0.94L528.56,815
				c-0.11-0.58,0.36-1.27,0.94-1.39l15.12-2.9c0.58-0.11,1.27,0.36,1.39,0.94l4.27,22.29l27.33-5.24l-4.28-22.29
				c-0.11-0.58,0.36-1.27,0.94-1.39l15.12-2.9c0.58-0.11,1.27,0.36,1.39,0.94L601.49,858.9z"/>
			<path class="st10" d="M667.82,801.19c7.67,17.54-1.76,34.15-18.21,41.35s-35.05,2.84-42.72-14.7s1.76-34.15,18.21-41.35
				C641.55,779.29,660.15,783.65,667.82,801.19z M623.16,820.72c3.88,8.86,12.85,11.4,20.44,8.08c7.59-3.32,11.82-11.63,7.95-20.49
				c-3.83-8.77-12.85-11.4-20.44-8.08C623.51,803.55,619.32,811.95,623.16,820.72z"/>
			<path class="st10" d="M716.49,729.39c0.47-0.36,1.3-0.24,1.66,0.23l34.25,45.36c0.36,0.47,0.24,1.3-0.23,1.66l-12.28,9.28
				c-0.47,0.36-1.3,0.24-1.66-0.23l-18.08-23.94l-0.16,0.12c0,0,0.66,3.33,0.71,7l0.33,24.35l-23.25-7.05
				c-3.52-1.05-6.54-2.6-6.54-2.6l-0.24,0.18l18.08,23.94c0.36,0.47,0.24,1.3-0.23,1.66l-12.29,9.28c-0.47,0.36-1.3,0.24-1.66-0.23
				l-34.25-45.36c-0.36-0.47-0.24-1.3,0.23-1.66l10.55-7.97c0.55-0.42,1.28-0.6,2.09-0.34l31.9,9.67l0.16-0.12l-0.56-33.33
				c-0.02-0.85,0.35-1.5,0.9-1.92L716.49,729.39z"/>
			<path class="st10" d="M761.12,732.87l5.99,5.14l21.09-24.55c0.39-0.45,1.5-0.53,1.95-0.15l9.28,7.97
				c0.45,0.39,0.53,1.5,0.15,1.95l-31.89,37.13c-0.39,0.45-1.22,0.51-1.67,0.13l-43.12-37.04c-0.45-0.39-0.51-1.22-0.13-1.67
				l31.64-36.83c0.39-0.45,1.5-0.53,1.95-0.15l9.28,7.97c0.45,0.39,0.53,1.5,0.15,1.95l-20.83,24.25l5.54,4.76l18.9-22.01
				c0.39-0.45,1.5-0.53,1.95-0.15l8.53,7.33c0.45,0.39,0.53,1.5,0.15,1.95L761.12,732.87z"/>
		</g>
	</g>
	<g>
		<path class="st13" d="M220,306.89c-1.09,1.93-2.23,3.67-2.89,4.83c-2.18,3.87-3.83,6.51-4.98,8.24c-1.81,0.51-5.94-1.82-7.26-1.88
			c-6.15-0.24-10.87,2.71-14.14,8.52c-4.86,8.64-2.24,19.97,9.24,26.43c9.03,5.08,18.1,2.54,23.36-1.97
			c3.19-4.15,4.95-6.38,5.32-7.03c4.14-7.35-1.04-15.36-6.46-18.41c-0.52-0.29-0.98-0.38-1.36-0.6c-0.06-1.4-0.1-1.93-0.23-2
			c0.07-0.13,1.85-3.89,5.7-10.72c1.67-2.97,3.44-5.2,5.17-6.77c2.33-0.22,4.76,0.3,7.08,1.61c3.48,1.96,7.63,6.67,11.9,11.45
			c4.13,10.48,9.31,19.68,4.59,28.06c-4.21,10.2-6.54,15.85-7.12,16.88c-1.82,3.22-3.8,5.85-6.08,7.79
			c-10.02,5.74-16.28,9.01-18.72,10.02c-12.58,5.15-15.72,1.68-30.54-1.56c-4.06-0.93-7.32-2.08-9.51-3.32
			c-5.55-3.12-11.13-11.02-15.88-16.75c-3.87-4.9-5.87-10.1-6.21-15.22c-2.65-6.76-2.45-9.53,3.24-24.17
			c0.47-1.44,1.07-2.8,1.72-3.96c3.7-6.58,9.35-10.88,16.94-12.89c-0.08-1.06-0.64-1.89-1.8-2.54c-0.52-0.29-2.34-0.98-2.98-1.34
			c-2.32-1.31-1.65-2.8-0.27-5.25c2.69-4.77,7.78-11.42,8.66-12.96c1.67-0.25,3.69,0.38,5.89,1.61c1.93,1.09,3.91,2.71,5.46,3.58
			c1.42,0.8,2.65,1.32,3.7,1.57l1.42,0.8c3.61,2.03,12.12,5.63,13.92,6.65c2.19,1.23,4.11,2.65,5.7,4.06
			C222.65,301.59,221.38,304.44,220,306.89z"/>
		<path class="st13" d="M338.3,257.87c-0.99,0.89-5.29,2.98-6.6,4.17c-0.55,0.5-0.89,1-1.23,1.51c-6.13,5.14-32.19,27.52-40.1,34.67
			c-8.78,7.94-16.17,15.22-22.17,22.05c-2.7-2.55-6.72-6.1-12.24-10.89c-0.7-0.77-3.41-3.11-4.3-4.09
			c-2.88-3.18-3.17-3.72,4.47-11.83c2.55-2.7,3.62-5.27,3.22-7.7c-3.77-4.17-18.72-17.39-22.6-21.68c-2.01,0.42-4.93,2.27-8.78,5.74
			c-0.88,0.79-1.87,1.69-2.87,2.79c-1.42-0.91-2.84-1.82-4.53-3.69c-3.28-3.62-7.24-8.22-11.86-14.22c-0.08-0.53-0.15-1.26,0-1.99
			c1.21-1.09,2.84-2.37,4.71-4.06c5.27-4.77,12.98-12.13,23.23-22.2c0.76-0.49,1.42-1.08,2.18-1.78c1.98-1.79,3.98-4.2,6.01-7.03
			c9.29-7.6,16.51-13.74,22-18.7c3.84-3.48,6.82-6.37,8.7-8.47c1.51-0.76,2.86-0.59,4.05,0.73c6.47,8.92,12.19,16.12,17.25,21.72
			c1.59,1.76,3.08,3.4,4.58,4.84c0.88,1.2,0.7,2.76-0.66,4.79c-5.93,5.36-10.32,9.33-13.16,11.71c-0.82-0.46-8.34-9.22-12.31-7.43
			c-1.41,0.87-3.04,2.15-4.58,3.54c-15.04,13.6-13.89,13.56-11.82,16.28c2.19,2.21,4.15,5.03,6.45,2.94
			c2.53-2.28,4.7-3.85,2.02-6.82c-1.39-1.54-1.54-2.8-0.33-3.89c0.11-0.1,0.65-0.39,1.42-1.08c0.88-0.79,2.21-2.19,4.07-3.88
			c1.65-1.49,3.35-2.03,4.8-1.75c0.79,0.88,1.58,1.97,2.67,3.17c4.67,5.16,9.47,9.59,10.37,10.58c1.89,2.09,3.56,4.16,4.72,6.11
			l-1.87,1.69c-2.2,1.99-5.04,4.36-8.42,7.02c-1.68,0.13-5.41-4.88-8.21-3.56c-0.77,0.7-1.65,1.49-2.51,2.08
			c-0.78,0.9-0.83,1.95-0.47,3.02c0.44-0.4,1.7,1.66,3.39,3.52c1.69,1.87,3.8,3.54,6.26,2.72c2.27-1.46,4.56-3.13,6.75-5.11
			c3.18-2.88,7.4-7.49,12.32-13.74c1.13-3.61-8.66-9.13-5.67-14.43c4.43-4.81,7.54-8.22,9.63-10.1c1.21-1.09,1.97-1.58,3.39-0.67
			c0.89,0.99,1.88,2.29,2.97,3.5c8.54,9.44,25.3,24.22,27.1,25.99C339.99,255.54,339.51,256.77,338.3,257.87z"/>
		<path class="st13" d="M442.16,216.41c-2.2,0.87-5.09,1.21-8.67,2.63l-3.99,1.58c-1.79,0.71-2.92,1.47-3.94,1.71
			c-9.64,3.8-17.03,3.22-22.23-1.89c-6.88-3.33-8.95-21.45-19.08-22.54c-4.43,0.47-9.02,1.33-13.51,2.47
			c-1.21,0.96-1.22,2.55-0.08,5.44c2.01,5.09,2.97,5.51,4.84,5.41l6.61-2.61c5.2-1.74,6.7,0.86,8.33,4.99
			c1.25,3.17,4.14,14.12,5.39,17.29c-0.31,2.03-5.08,4.07-9.62,5.87l-4.68,1.85c-5.51,2.17-28.28,10.21-35.99,13.25
			c-1.43,1.2-2.29,1.86-2.57,1.97c-0.96,0.38-1.73,0.05-2.25-0.86c-0.32-1.62-0.95-3.6-1.87-5.95c-1.14-2.89-3.35-7.27-4.6-10.44
			c-1.47-3.72-2.7-5.62-0.9-7.92c-0.05-0.14,2.72-0.76,7.82-2.77c5.78-2.28,5.22-5.72,3.64-9.71c-0.71-1.79-3.1-6.25-3.92-8.32
			c-0.76-1.93-0.95-3.61-1.54-5.12c-3.53-8.95-5.85-12.81-8.24-12.82c-2.81,0.95-7.1,2.17-12.77,3.93c-3.17-4-6.39-9.73-9.38-17.3
			c-0.76-1.93-4.57-10.77-3.05-11.37c0.69-0.27,3.1,1,3.84,0.87c1.29-0.35,2.72-0.76,4.1-1.3c3.03-1.2,13.03-6.89,16.06-8.09
			c13.43-3.07,48.42-16.41,51.23-17.36c12.79-1.07,22.95,6.54,26.65,15.9c2.77,7.02,2.44,13.04-1.26,17.37
			c-1.41,1.67-3.67,4-5.86,7.73c5.08,1.18,10.46,2.71,11.93,6.43c2.83,7.16,5.52,7.53,12.34,5.47c2.72-0.76,4.57-1.33,5.89-1.21
			c2.51,3.14,9.78,18.73,12.98,22.41C443.96,214.91,443.4,215.92,442.16,216.41z M371.09,173.02l-10.05,3.97
			c-1.24,1.29-0.89,2.58-0.18,4.37s1.93,3.69,3.63,5.57c1.82-0.24,3.66-0.81,5.59-1.57c4.82-1.9,12.73-6.46,11.37-9.9
			c-0.16-0.41-0.46-0.77-0.76-1.13C378.48,172.01,375.22,171.39,371.09,173.02z"/>
		<path class="st13" d="M549.72,214.25c-2.37,0.04-5.19-0.66-9.04-0.59l-4.29,0.07c-1.92,0.03-3.25,0.35-4.29,0.22
			c-10.36,0.17-17.07-2.98-20.14-9.59c-5.27-5.54-0.82-23.23-9.93-27.82c-4.31-1.12-8.91-1.93-13.51-2.45
			c-1.47,0.47-2.04,1.96-1.99,5.07c0.09,5.48,0.84,6.21,2.63,6.77l7.1-0.11c5.48,0.21,5.97,3.16,6.04,7.6
			c0.05,3.4-1.09,14.67-1.04,18.08c-1.01,1.79-6.19,2.03-11.07,2.1l-5.03,0.08c-5.92,0.1-30.06-0.4-38.35-0.27
			c-1.77,0.62-2.8,0.93-3.09,0.94c-1.04,0.02-1.64-0.57-1.8-1.6c0.27-1.63,0.38-3.71,0.34-6.22c-0.05-3.11-0.57-7.99-0.63-11.39
			c-0.07-4-0.54-6.21,1.95-7.73c0-0.15,2.82,0.25,8.29,0.16c6.22-0.1,6.9-3.52,6.83-7.81c-0.03-1.92-0.7-6.95-0.74-9.17
			c-0.03-2.07,0.38-3.71,0.36-5.34c-0.16-9.62-0.97-14.05-3.2-14.9c-2.96-0.1-7.41-0.47-13.34-0.82c-1.56-4.86-2.55-11.36-2.68-19.5
			c-0.03-2.07-0.49-11.69,1.14-11.71c0.74-0.01,2.55,2.03,3.29,2.17c1.33,0.13,2.82,0.25,4.3,0.23c3.26-0.05,14.63-1.87,17.88-1.92
			c13.65,1.85,51.1,1.69,54.07,1.79c12.34,3.5,19.18,14.2,19.34,24.26c0.12,7.55-2.31,13.07-7.29,15.81
			c-1.91,1.07-4.85,2.45-8.21,5.17c4.34,2.89,8.84,6.22,8.9,10.22c0.13,7.7,2.51,8.99,9.63,9.47c2.82,0.25,4.74,0.37,5.94,0.94
			c1.25,3.83,2.56,20.98,4.26,25.54C551.93,213.47,551.05,214.23,549.72,214.25z M498.47,148.61l-10.8,0.17
			c-1.62,0.77-1.74,2.1-1.71,4.03c0.03,1.92,0.51,4.14,1.44,6.49c1.78,0.42,3.71,0.53,5.78,0.5c5.18-0.08,14.19-1.56,14.13-5.26
			c-0.01-0.44-0.16-0.89-0.32-1.33C505.75,150.26,502.91,148.53,498.47,148.61z"/>
		<path class="st13" d="M654.58,252.03c-3.76-2.16-8.23-4.13-13.45-6.23c-9.19-3.72-19.52-7.41-29.29-10.88
			c0.52-6.02,5.83-21.91,6-23.12c1.52-0.98,10.02,2.46,11.25-0.56c0.72-1.78,0.28-2.28-0.86-4.98c-1.81-1.05-3.95-2.08-6.42-3.08
			l-6.59-2.66c-8.13-2.81-9.69-3.28-13.25,1.19c-1.12,4.34,8.64,5.89,8.51,9.35l-8.56,18.41c-0.3,0.36-1.02,0.55-2.09,0.43
			c-5.85-2.52-14.85-6.32-26.92-11.2c-1.21-0.17-3.24-0.67-6.12-1.84c-1.37-0.55-2.96-1.36-4.47-1.97c-3.43-1.39-6.62-1.4-8.4-2.12
			c-1.1-0.44-1.48-1.88-1.19-4.16c0.72-0.99,1.3-2.03,1.8-3.26c1.11-2.75,2.51-10.96,3.4-13.15c0.72-1.78,1.66-3.32,2.96-4.55
			c0.99-0.08,4.29,0.46,9.89,1.6c3.98,0.81,7.12,0.16,9.52-2.22c6.4-6.35,39.76-31.99,49.06-42.76c0.91-0.27,1.71-0.27,2.67,0.12
			s3.07,1.88,4.03,2.27c0.69,0.28,1.29,0.36,1.95,0.31l3.29,1.33c3.29,1.33,7.6,2.91,12.74,4.83c0.49,0.36,0.88,0.99,1.26,1.63
			c-0.56,11.27-0.53,33.31,0.03,66.27c0.51,2.28,2.3,3.8,5.31,5.02c1.24,0.5,2.39,0.81,3.35,1.19c5.08,2.05,4.47,1.97,4.52,4.22
			c0.06-0.14-2.31,6.89-7.11,20.76C660.35,253.57,658.15,253.48,654.58,252.03z M628.56,188.83c1.61-3.98,1.12-14.23,0.71-14.4
			c-1.78-0.72-8.28,8.63-9.99,11.29c0.14,0.06,0.19,0.71,0.41,1.76c1.26,0.83,2.58,1.52,3.81,2.02c1.51,0.61,2.8,0.97,4.2,1.06
			C628.06,190.06,628.28,189.51,628.56,188.83z"/>
		<path class="st13" d="M761.69,288.07c-3.74,4-10.29,8.42-19.76,13.14c-10.35,3.5-25.91,4.97-34.02-2.6
			c-7.36-6.87-21.59-21.78-24.51-24.5c-3.89-3.64-7.44-6.13-11.22-9.67s-7.73-8.43-11.86-12.89c-0.03-0.84,0.27-1.37,0.67-1.8
			c-0.1,0.11,1.42-1.3,9-9.42c3.43-3.68,6.48-6.51,9.14-8.27c1.06,0.38,2.14,1.18,3.22,2.19c1.19,1.11,3.7,4.06,4.89,5.17
			c2.92,2.73,4.7,2.77,7.43-0.15c0.4-0.43,2.59-3.86,5.52-7c2.32-2.49,4.89-3.94,7.42-6.64c1.92-2.06,6.98-7.26,5.21-9.92
			c-4.87-4.54-7.68-7.17-8.76-7.97l-0.18-2.19c0.2-0.22,5.77-5.96,16.7-17.02c2.93-0.1,18.78,13.28,30.58,24.29
			c4.11,3.84,9.79,10.77,11.09,11.98c1.19,1.11,2.37,2.01,3.45,2.81c13.96,13.24,15.67,26.17,7.19,41.75
			c-4.73,8.54-7.3,13.24-7.68,14.3C764.1,285.26,763,286.66,761.69,288.07z M739.81,239.49c-1.19-1.11-2.68-1.69-4.24-1.53
			c-3.23,3.46-8.3,8.24-15.22,14.35c-1.31,1.41-5.38,4.9-6.9,6.52c-1.72,1.84-2.91,3.77-3.37,5.56c1.52,1.62,2.94,3.15,4.23,4.36
			c11.04,10.3,22.15,4.48,27.7-1.48c1.92-2.06,3.2-4.3,3.85-6.73C748.43,252.81,746.3,245.55,739.81,239.49z"/>
		<path class="st13" d="M812.56,379.22c-11.58,6.27-26.49,6.1-44.66-0.4c-6.92-5.01-12.63-11.51-16.93-19.45
			c-3.81-7.03-5.62-13.79-5.63-20.35c4.18-19.94,12.37-33.12,24.47-39.68c7.68-4.16,17.75-6.08,22.57-6.5
			c11.1-0.96,22.8,2.63,31.45,11.76c3.8,4.84,9.47,10.02,12.29,15.23c3.1,5.73,3.2,12.75,3.77,20.01c-0.84,12.75-8,24.7-21.49,35.54
			C816.52,376.9,814.51,378.16,812.56,379.22z M799.58,354.93c11.72-6.34,12.68-15.45,8.31-23.52c-0.49-0.91-1.12-1.75-1.74-2.59
			c-0.14-0.26-0.15-0.59-0.22-0.72c-1.83-3.38-11.59-6.18-11.94-6.5c-3-0.56-6.16,0.13-9.41,1.9c-6.51,3.52-16.75,12.27-10.55,23.73
			c4.02,7.42,9.44,11.22,16.08,11.66C793.84,357.7,796.97,356.34,799.58,354.93z"/>
	</g>
	<g>
		<circle class="st13" cx="166.63" cy="500" r="22.2"/>
		<circle class="st13" cx="833.37" cy="500" r="22.2"/>
	</g>
</g>
</svg>
